<svg xmlns="http://www.w3.org/2000/svg" width="90" height="90" viewBox="0 0 90 90">
  <defs>
    <style>
      .cls-1 {
        fill: #65903e;
      }

      .cls-2 {
        fill: #6c9d41;
      }

      .cls-3 {
        fill: #95bb4a;
      }

      .cls-4 {
        opacity: 0.1;
      }

      .cls-5 {
        fill: #fff;
      }

      .cls-6 {
        fill: #666463;
      }

      .cls-7 {
        fill: #8a8886;
      }

      .cls-8 {
        fill: #8c8a88;
      }

      .cls-9 {
        fill: #bebdb9;
      }

      .cls-10 {
        fill: #dad7d5;
      }
    </style>
  </defs>
  <g id="Layer_1" data-name="Layer 1">
    <g>
      <circle class="cls-1" cx="39.87" cy="40.68" r="30.72"/>
      <path class="cls-2" d="M41,65.07A24.11,24.11,0,1,1,65.08,41,24,24,0,0,1,41,65.07Z"/>
      <path class="cls-3" d="M52.41,19.74A24.1,24.1,0,0,0,20.08,53,50.14,50.14,0,0,0,52.41,19.74Z"/>
      <path class="cls-4" d="M39.87,23.64a1.39,1.39,0,0,0-1.31.9L34.63,34.75l-10.94.59a1.4,1.4,0,0,0-.81,2.49l8.5,6.91L28.56,55.32a1.39,1.39,0,0,0,1.35,1.76,1.43,1.43,0,0,0,.77-.22l9.19-6,9.19,6a1.44,1.44,0,0,0,1.59,0,1.41,1.41,0,0,0,.53-1.5L48.36,44.74l8.5-6.91a1.4,1.4,0,0,0-.81-2.49l-10.93-.59L41.18,24.54a1.39,1.39,0,0,0-1.31-.9Z"/>
      <path class="cls-5" d="M39.87,22.15a1.39,1.39,0,0,0-1.31.9L34.63,33.26l-10.94.59a1.4,1.4,0,0,0-.81,2.49l8.5,6.91L28.56,53.83a1.41,1.41,0,0,0,.53,1.5,1.36,1.36,0,0,0,.82.26,1.43,1.43,0,0,0,.77-.22l9.19-5.95,9.19,5.95a1.43,1.43,0,0,0,.77.22,1.36,1.36,0,0,0,.82-.26,1.41,1.41,0,0,0,.53-1.5L48.36,43.25l8.5-6.91a1.4,1.4,0,0,0-.81-2.49l-10.93-.59L41.18,23.05a1.39,1.39,0,0,0-1.31-.9Z"/>
      <path class="cls-6" d="M59,69.31,74.6,85a4.51,4.51,0,0,0,3.28,1.63c1.78,0,3.61-1.29,5.51-3.2,3.08-3.08,4.55-5.94,1.57-8.79L69.31,59"/>
      <path class="cls-7" d="M67.9,60.36,83.58,76.05a2.5,2.5,0,0,1,1,1.81c0,1-.87,2.37-2.61,4.12s-3.11,2.61-4.1,2.61c-.22,0-.87,0-1.86-1L60.36,67.9"/>
      <path class="cls-6" d="M74.3,63.93l-5-5L59,69.31l5,5A42.56,42.56,0,0,0,74.3,63.93Z"/>
      <path class="cls-8" d="M39.87,3.41A36.46,36.46,0,1,0,76.33,39.87,36.47,36.47,0,0,0,39.87,3.41Zm0,65.49a29,29,0,1,1,29-29A29,29,0,0,1,39.87,68.9Z"/>
      <path class="cls-9" d="M39.87,5.41A34.46,34.46,0,1,0,74.33,39.87,34.46,34.46,0,0,0,39.87,5.41Zm0,61.66a27.2,27.2,0,1,1,27.2-27.2A27.2,27.2,0,0,1,39.87,67.07Z"/>
      <path class="cls-10" d="M12.68,39.87A27.18,27.18,0,0,1,53.29,16.22a48.93,48.93,0,0,0,1.08-7.61A34.46,34.46,0,0,0,9,55.1a50.14,50.14,0,0,0,7.58-1.25A27.09,27.09,0,0,1,12.68,39.87Z"/>
    </g>
  </g>
</svg>